<?xml version="1.0" standalone="no"?>
<!DOCTYPE svg PUBLIC "-//W3C//DTD SVG 20010904//EN"
 "http://www.w3.org/TR/2001/REC-SVG-20010904/DTD/svg10.dtd">
<svg version="1.0" xmlns="http://www.w3.org/2000/svg"
 width="224.000000pt" height="224.000000pt" viewBox="0 0 224.000000 224.000000"
 preserveAspectRatio="xMidYMid meet">
<metadata>
Created by potrace 1.14, written by Peter Selinger 2001-2017
</metadata>
<g transform="translate(0.000000,224.000000) scale(0.100000,-0.100000)"
fill="#000000" stroke="none">
<path d="M759 1868 c-22 -41 -428 -858 -541 -1088 -61 -124 -135 -273 -164
-332 l-54 -108 213 0 213 0 379 766 c209 421 382 770 383 775 2 5 -87 9 -207
9 -208 0 -210 0 -222 -22z"/>
<path d="M1279 1855 c-7 -16 -14 -36 -15 -42 -1 -7 -10 -20 -19 -29 -9 -9 -19
-29 -22 -45 -3 -16 -10 -29 -15 -29 -6 0 -4 -8 3 -17 8 -9 9 -14 3 -10 -7 4
-17 0 -24 -8 -7 -8 -10 -15 -6 -15 4 0 -1 -11 -10 -25 -9 -14 -12 -25 -8 -25
5 0 2 -5 -6 -11 -13 -9 -12 -10 3 -5 11 3 16 2 12 -4 -3 -6 -12 -10 -20 -10
-12 0 -22 -14 -23 -34 0 -5 -5 -12 -10 -15 -5 -3 1 -14 14 -24 22 -17 23 -16
19 3 -2 11 1 20 7 20 5 0 8 -7 4 -15 -8 -22 2 -18 15 6 6 12 7 19 2 16 -5 -3
-14 3 -21 14 -7 11 -8 19 -2 19 5 0 10 -4 10 -10 0 -5 5 -10 12 -10 9 0 9 3 0
12 -9 9 -9 15 0 26 9 10 9 15 -1 21 -10 6 -9 10 4 14 10 5 14 3 9 -5 -4 -7 -3
-8 4 -4 8 5 10 1 5 -11 -7 -19 -5 -18 17 11 11 15 12 18 2 12 -12 -7 -12 -4
-2 14 7 12 7 20 2 16 -6 -3 -5 4 1 19 14 28 29 34 21 8 -5 -16 -4 -16 6 -3 10
13 11 13 7 0 -5 -17 28 -25 38 -9 3 5 0 6 -8 3 -11 -4 -14 2 -13 25 0 16 5 27
10 24 5 -4 6 0 1 8 -7 11 -5 11 11 -1 18 -14 18 -14 5 2 -7 10 -18 15 -24 11
-6 -4 -7 -1 -2 8 5 7 9 27 10 44 1 16 6 30 12 30 20 0 26 14 14 29 -9 11 -9
16 0 22 8 5 9 3 4 -6 -6 -9 -4 -11 5 -5 9 6 11 4 5 -6 -7 -12 -5 -11 11 1 15
11 16 11 7 0 -7 -8 -13 -18 -13 -24 0 -5 6 -2 13 9 9 11 19 15 27 10 9 -6 11
-4 5 6 -7 11 -5 11 10 -1 14 -11 19 -12 22 -2 3 6 9 12 14 12 6 0 8 -4 4 -9
-3 -5 0 -13 6 -17 8 -5 9 -3 4 7 -5 8 -5 11 0 7 4 -4 14 -3 22 4 11 8 17 8 26
-2 8 -9 8 -11 1 -7 -7 4 -20 -1 -31 -11 -10 -9 -12 -12 -3 -7 13 9 13 8 2 -7
-10 -12 -10 -18 -1 -24 7 -4 9 -3 5 4 -4 6 3 9 19 8 13 -2 22 1 19 5 -3 5 -1
9 5 9 17 0 6 -62 -14 -76 -10 -8 -14 -14 -9 -14 6 0 14 3 20 8 5 4 -2 -4 -16
-17 -14 -13 -19 -20 -12 -16 7 3 25 8 40 11 22 4 24 2 12 -7 -13 -9 -13 -10 2
-5 10 3 20 1 23 -4 4 -6 12 -10 18 -10 8 0 8 3 2 8 -15 11 -17 32 -2 32 8 0 7
3 -3 9 -8 6 -18 7 -24 4 -5 -3 -6 -1 -2 5 5 8 1 10 -11 6 -15 -5 -16 -4 -3 5
13 9 13 11 0 11 -13 0 -13 1 0 10 13 9 13 10 0 10 -12 0 -12 2 -1 9 9 6 10 11
2 15 -14 9 -14 26 0 26 5 0 8 -4 4 -9 -3 -5 0 -13 6 -17 8 -5 9 -3 4 7 -6 11
-5 12 6 2 7 -7 17 -13 23 -13 5 0 1 7 -10 16 -10 8 -13 12 -5 8 10 -5 12 -3 6
6 -6 9 -4 11 5 5 9 -6 11 -4 5 5 -5 8 -4 11 3 6 6 -3 13 -2 17 4 3 5 11 10 18
10 6 0 1 -7 -11 -16 -12 -8 -22 -18 -22 -22 0 -11 39 -12 45 -1 3 5 -1 6 -9 3
-9 -3 -16 -1 -16 6 0 6 5 8 10 5 6 -3 10 -1 10 6 0 10 3 10 12 1 8 -8 8 -15
-3 -29 -12 -16 -12 -17 2 -6 9 7 19 9 23 5 5 -4 6 2 4 13 -2 13 2 19 10 17 8
-1 11 2 6 9 -4 8 -3 9 5 5 9 -6 9 -11 1 -21 -7 -8 -8 -20 -4 -26 4 -7 3 -9 -4
-5 -7 4 -10 -1 -7 -14 2 -11 -1 -23 -7 -26 -6 -4 -8 -2 -4 4 3 6 3 13 -2 16
-4 2 -13 -4 -20 -15 -7 -11 -8 -19 -2 -19 5 0 10 -5 10 -12 0 -6 -3 -8 -7 -5
-3 4 -12 2 -20 -4 -11 -10 -11 -15 -1 -27 11 -13 11 -14 -1 -7 -10 6 -12 4 -6
-5 6 -9 4 -11 -5 -5 -9 6 -11 4 -5 -5 6 -9 4 -11 -6 -5 -12 7 -11 5 1 -11 11
-15 11 -16 0 -6 -17 15 -30 16 -30 1 0 -5 4 -8 9 -4 5 3 13 0 17 -6 4 -8 3 -9
-5 -5 -7 5 -10 2 -9 -6 2 -7 -3 -12 -10 -10 -8 1 -12 -3 -10 -10 3 -7 12 -14
21 -16 12 -3 15 1 10 14 -5 13 -3 15 8 9 8 -4 11 -5 7 0 -4 4 0 14 8 22 8 8
12 18 9 23 -3 5 -1 12 5 15 6 4 8 16 4 28 -6 20 -5 21 11 7 11 -8 16 -10 12
-4 -4 7 2 23 13 37 11 14 21 33 23 43 2 11 9 29 15 42 7 12 11 23 10 23 -14 6
-288 2 -288 -4 0 -4 -6 -5 -12 0 -7 4 -34 8 -59 8 -42 1 -47 -2 -60 -30z m181
19 c0 -8 -19 -13 -24 -6 -3 5 1 9 9 9 8 0 15 -2 15 -3z m88 -11 c-6 -7 -15
-10 -20 -7 -5 3 -17 -1 -26 -8 -29 -26 -42 -30 -36 -14 3 9 9 15 12 14 19 -2
23 3 14 15 -8 10 -2 12 28 12 30 0 36 -3 28 -12z m102 11 c0 -8 -19 -13 -24
-6 -3 5 1 9 9 9 8 0 15 -2 15 -3z m-341 -37 c0 -8 -2 -8 -6 1 -4 10 -9 9 -20
-5 -13 -17 -13 -16 -3 5 11 22 31 22 29 -1z m-35 -54 c-3 -16 -6 -42 -7 -60
-1 -24 -4 -29 -14 -22 -7 6 -18 7 -24 3 -8 -4 -9 -3 -5 4 4 7 9 21 11 32 3 17
35 69 43 70 1 0 0 -12 -4 -27z m273 -50 c0 -9 -4 -10 -13 -2 -7 6 -19 7 -25 3
-7 -4 -9 -3 -5 4 9 15 43 11 43 -5z m-337 -63 c0 -5 -5 -10 -11 -10 -5 0 -7 5
-4 10 3 6 8 10 11 10 2 0 4 -4 4 -10z m0 -28 c0 -5 -7 -9 -15 -9 -8 0 -12 4
-9 9 3 4 9 8 15 8 5 0 9 -4 9 -8z m-59 -106 c-6 -7 -7 -17 -3 -21 4 -5 2 -5
-5 -2 -9 6 -10 18 -4 45 1 2 6 0 11 -3 8 -5 8 -11 1 -19z"/>
<path d="M1255 1770 c-11 -18 -14 -49 -5 -55 4 -3 7 3 5 12 -1 10 2 26 7 36 9
18 4 24 -7 7z"/>
<path d="M1346 1833 c-3 -8 -10 -12 -15 -8 -5 3 -12 1 -16 -5 -4 -6 -10 -8
-13 -6 -4 2 -7 -11 -7 -31 0 -23 7 -39 19 -49 11 -8 14 -15 8 -15 -7 -1 -17
-2 -24 -3 -6 0 -12 -9 -14 -19 -1 -9 2 -15 6 -12 14 9 21 -12 7 -23 -13 -11
-35 -11 -52 0 -6 4 -11 -2 -12 -13 -1 -10 2 -19 8 -19 5 0 9 -4 9 -10 0 -5 -6
-9 -12 -7 -7 1 -12 -4 -11 -10 2 -7 -2 -14 -7 -14 -5 -1 -14 -3 -20 -4 -5 -1
-13 -3 -16 -4 -4 0 -2 -7 3 -13 14 -17 9 -41 -13 -71 l-18 -24 -18 21 -17 21
-18 -25 c-10 -14 -18 -31 -20 -39 -1 -8 -7 -17 -13 -21 -6 -4 -8 -15 -4 -25 5
-12 4 -16 -4 -11 -14 8 -24 -8 -16 -28 5 -14 9 -14 22 -4 13 11 14 11 8 -2 -6
-11 -4 -10 9 2 18 16 18 19 2 36 -14 15 -14 19 -2 19 8 0 12 -3 10 -7 -2 -4 2
-7 10 -7 8 0 11 5 8 11 -4 6 2 4 12 -4 17 -13 18 -13 11 0 -4 8 0 6 8 -4 9
-11 16 -16 16 -12 0 5 6 5 13 0 7 -5 5 -2 -5 7 -9 9 -14 19 -11 23 7 7 39 -35
35 -46 -1 -5 3 -8 9 -8 5 0 7 -5 3 -11 -4 -8 -9 -7 -15 2 -5 8 -9 10 -9 6 0
-5 10 -21 22 -35 13 -17 19 -20 15 -9 -5 13 -3 16 6 11 7 -5 5 0 -3 11 -9 11
-10 16 -2 11 7 -4 12 -2 12 6 0 11 2 10 9 0 7 -11 9 -11 14 1 4 12 0 14 -19
11 -13 -2 -24 0 -24 6 0 6 5 8 12 4 7 -5 8 -3 4 5 -5 7 -1 20 9 31 18 20 4 23
-25 5 -12 -7 -13 -6 -5 6 6 8 2 6 -7 -4 -10 -11 -18 -15 -18 -10 0 5 5 14 10
19 8 8 6 15 -5 24 -8 7 -15 18 -15 24 0 7 3 6 9 -2 6 -10 10 -10 21 3 10 12
10 15 0 15 -7 0 -2 9 11 21 13 11 18 17 10 13 -10 -5 -12 -3 -6 6 6 9 4 11 -4
5 -10 -6 -11 -3 -2 14 14 25 23 28 15 4 -5 -14 -4 -15 4 -4 7 9 12 10 16 2 4
-6 2 -11 -4 -11 -6 0 -8 -5 -4 -11 4 -8 9 -7 15 2 7 11 9 11 9 -1 0 -12 2 -12
9 -1 5 8 11 9 15 3 3 -6 0 -12 -6 -15 -7 -2 -9 -8 -5 -13 4 -5 12 -2 17 6 6 9
10 10 10 3 0 -7 -8 -17 -17 -22 -10 -6 -12 -11 -6 -11 7 0 20 11 29 25 9 14
21 22 28 19 6 -3 4 0 -5 8 -9 7 -16 17 -15 22 1 5 -7 10 -17 12 -27 4 -50 25
-38 37 5 5 7 17 4 26 -3 9 -1 12 4 6 4 -5 22 -11 38 -12 22 -2 26 0 15 7 -13
9 -13 10 0 10 13 0 13 1 0 10 -13 8 -13 10 0 10 11 0 11 3 2 12 -15 15 -15 28
-1 28 5 0 7 -5 3 -12 -4 -7 -3 -8 5 -4 6 4 8 12 5 18 -5 7 -2 8 6 3 9 -6 11
-4 5 6 -7 11 -5 11 11 -1 18 -14 18 -14 4 5 -14 19 -14 19 5 5 18 -14 19 -13
8 1 -7 9 -9 20 -5 25 4 5 -2 1 -13 -8 -19 -16 -21 -16 -37 12 -11 19 -13 29
-5 27 7 -1 11 7 10 18 -1 20 -1 20 13 1 8 -11 14 -14 14 -7 0 7 5 9 11 5 6 -3
7 -9 3 -13 -5 -3 -10 -13 -12 -21 -3 -11 0 -12 8 -4 16 16 19 47 6 64 -10 13
-9 13 8 0 11 -8 22 -14 25 -13 3 0 12 -2 20 -7 10 -5 10 -9 2 -14 -6 -4 -11
-2 -11 5 0 8 -4 8 -15 -1 -8 -7 -13 -16 -10 -20 3 -5 0 -10 -7 -12 -6 -2 3
-14 20 -27 18 -12 30 -27 27 -32 -4 -5 2 -6 12 -3 15 5 16 4 3 -5 -13 -9 -13
-11 0 -11 12 0 12 -2 1 -9 -8 -5 -9 -11 -3 -15 12 -7 26 10 18 23 -5 7 34 8
42 1 2 -2 15 -6 29 -9 4 0 2 -6 -4 -12 -6 -6 -9 -19 -6 -28 3 -9 1 -12 -4 -6
-11 14 -36 18 -28 5 3 -5 1 -10 -5 -10 -7 0 -10 7 -6 18 6 16 5 16 -8 -1 -10
-13 -15 -14 -18 -6 -3 8 -7 9 -11 3 -3 -5 3 -16 15 -23 16 -10 19 -10 12 1 -6
10 -4 10 9 -1 11 -9 17 -10 17 -2 0 6 5 11 11 11 6 0 1 -13 -10 -28 -15 -22
-17 -32 -9 -40 9 -9 9 -12 1 -12 -6 0 -13 6 -16 13 -3 6 -4 2 -4 -10 1 -12 4
-20 8 -17 9 5 19 -9 24 -36 3 -13 0 -18 -7 -14 -7 4 -8 3 -4 -4 4 -7 -1 -10
-14 -7 -13 3 -18 0 -14 -7 5 -7 2 -8 -7 -3 -11 7 -12 6 -3 -6 14 -18 14 -50 0
-42 -6 4 -4 -2 4 -12 8 -11 10 -16 3 -11 -9 5 -11 2 -7 -8 3 -9 2 -16 -4 -16
-5 0 -9 8 -9 18 0 34 -3 43 -13 37 -7 -4 -6 -13 1 -27 6 -11 7 -18 1 -14 -5 3
-8 -6 -7 -23 1 -16 -1 -35 -6 -43 -7 -11 -9 -11 -9 1 0 8 -9 2 -21 -13 -12
-15 -17 -31 -12 -38 11 -18 13 -39 3 -33 -5 3 -11 1 -15 -5 -4 -6 -10 -8 -14
-6 -14 9 -30 -9 -21 -24 7 -10 10 -11 10 -2 0 6 5 12 11 12 8 0 8 -4 0 -14
-14 -17 -39 -15 -52 5 -7 12 -9 12 -9 -1 0 -13 -1 -13 -10 0 -9 13 -10 13 -10
0 0 -12 -2 -12 -9 -2 -7 11 -9 11 -14 -2 -4 -9 -11 -16 -17 -16 -6 0 -4 7 4
16 19 19 21 28 4 19 -7 -4 -5 0 5 8 10 9 14 18 8 21 -5 3 -11 3 -14 -1 -2 -5
-2 -2 0 5 1 8 -2 10 -10 6 -9 -5 -9 -4 1 7 14 15 16 33 3 24 -5 -3 -13 0 -17
6 -4 8 -3 9 4 5 7 -4 12 -5 12 -2 0 3 -10 10 -21 17 -12 6 -19 7 -16 2 3 -5
-4 -9 -16 -10 -12 0 -16 1 -9 4 6 3 9 9 6 14 -3 6 -12 2 -21 -8 -8 -10 -11
-11 -7 -3 7 13 5 13 -9 1 -9 -7 -15 -17 -12 -21 8 -12 -6 -41 -16 -34 -5 3 -7
-1 -6 -8 2 -7 2 -10 0 -5 -3 4 -9 4 -14 1 -6 -3 -2 -12 8 -21 10 -8 11 -11 3
-7 -13 7 -13 5 -1 -9 15 -19 26 -23 15 -5 -5 7 -3 8 6 3 9 -6 11 -4 5 5 -6 9
-4 11 6 5 12 -7 12 -6 0 9 -12 14 -12 19 -2 25 7 5 12 11 11 15 -1 4 0 10 3
14 2 4 2 2 1 -5 -2 -7 2 -15 8 -19 7 -5 8 -2 3 5 -6 10 -2 10 16 0 13 -7 30
-12 37 -11 6 2 12 -2 12 -8 0 -6 -4 -9 -9 -5 -5 3 -13 0 -17 -6 -5 -8 -3 -9 6
-4 8 5 3 -7 -10 -26 -20 -28 -21 -32 -5 -19 16 11 17 11 8 0 -19 -21 -15 -32
8 -25 19 6 20 5 8 -8 -9 -9 -18 -12 -25 -6 -7 5 -11 4 -11 -4 0 -7 11 -13 23
-13 13 0 20 4 16 11 -3 5 1 4 10 -3 13 -10 18 -10 24 -1 5 8 3 10 -7 5 -8 -4
-6 -1 4 7 10 9 14 18 8 21 -5 3 -11 1 -13 -6 -3 -7 -7 -8 -11 -2 -3 5 3 16 15
23 16 10 19 10 12 -1 -4 -7 -4 -10 1 -6 4 4 15 2 23 -5 13 -10 14 -9 7 3 -6
11 -5 12 4 4 16 -14 22 -52 10 -60 -16 -10 -23 4 -10 20 10 12 9 15 -8 13 -26
-2 -24 -27 4 -45 11 -8 13 -11 5 -9 -11 3 -16 -2 -16 -18 0 -16 5 -21 16 -18
9 3 11 2 4 -4 -6 -4 -14 -17 -18 -28 -5 -14 -9 -16 -15 -7 -6 10 -10 10 -18 0
-12 -15 -13 -49 -1 -42 4 3 5 -2 2 -11 -6 -14 -8 -14 -21 2 -8 10 -12 12 -8 6
3 -7 8 -22 10 -32 3 -15 0 -18 -12 -14 -13 5 -15 2 -10 -13 6 -14 2 -13 -13 6
-12 15 -18 18 -14 8 3 -10 1 -18 -4 -18 -6 0 -9 9 -7 20 2 12 0 18 -6 15 -5
-4 -6 -11 -3 -17 4 -7 2 -8 -4 -4 -16 10 -15 -2 2 -19 10 -11 16 -11 26 -2 10
9 11 9 5 -2 -5 -9 -4 -12 2 -8 5 3 10 0 10 -8 0 -8 -4 -15 -9 -15 -4 0 -8 6
-8 13 0 8 -3 7 -10 -3 -10 -16 7 -33 24 -23 5 3 6 1 2 -5 -4 -6 -14 -9 -24 -6
-15 5 -14 4 1 -6 15 -10 21 -8 32 6 7 11 11 22 9 26 -2 4 0 10 6 13 8 5 7 11
-1 21 -10 12 -9 13 5 8 14 -6 21 5 17 29 0 4 4 7 10 7 5 0 7 5 4 10 -3 6 -2
10 4 10 5 0 13 10 17 23 3 12 15 34 26 50 11 15 17 27 14 27 -4 0 4 17 17 38
13 20 22 43 19 51 -3 9 0 11 8 6 9 -5 11 -4 6 3 -4 7 -1 12 6 12 9 0 9 3 -2
10 -14 9 -6 15 15 10 6 -1 7 1 3 5 -4 4 5 27 18 51 14 24 22 44 19 44 -3 0 2
11 11 25 9 14 14 25 10 25 -3 0 3 9 14 20 19 19 25 38 21 68 -1 7 2 11 6 10 4
-2 9 1 10 6 1 5 6 12 13 16 6 4 12 13 13 21 2 8 7 21 12 29 5 8 10 21 12 29 1
8 5 17 10 20 14 10 39 45 27 38 -14 -8 -48 28 -39 43 3 5 12 7 18 3 8 -4 8 -1
-1 9 -7 9 -11 22 -10 29 2 8 -3 13 -11 11 -7 -1 -18 2 -25 7 -7 6 -17 6 -26 1
-21 -13 -33 -1 -18 17 7 9 12 18 11 20 -7 9 -2 23 8 21 15 -4 20 30 7 38 -6 4
-14 1 -19 -7 -6 -11 -12 -10 -28 5 -11 10 -19 23 -18 28 3 17 -71 18 -77 1z
m18 -11 c3 -5 -1 -9 -9 -9 -8 0 -12 4 -9 9 3 4 7 8 9 8 2 0 6 -4 9 -8z m91
-69 c-1 -34 -19 -40 -37 -14 -8 12 -18 18 -21 14 -4 -3 -7 -1 -7 6 0 8 7 11
18 7 14 -5 13 -3 -3 10 -16 13 -16 15 -3 11 10 -3 20 -2 24 4 10 17 31 -9 29
-38z m32 32 c0 -8 -4 -12 -9 -9 -5 3 -6 10 -3 15 9 13 12 11 12 -6z m-173 -31
c3 -8 2 -12 -4 -9 -6 3 -10 10 -10 16 0 14 7 11 14 -7z m228 -179 c-9 -13 -20
-21 -24 -18 -5 2 -8 -1 -8 -6 0 -6 5 -11 10 -11 6 0 5 -6 -2 -14 -11 -12 -14
-12 -21 0 -4 8 -6 18 -2 23 3 5 1 12 -5 16 -6 4 -2 18 11 36 20 28 22 29 40
13 17 -15 17 -18 1 -39z m-245 -22 c7 -6 13 -15 13 -19 0 -4 -8 0 -18 9 -10
10 -21 15 -24 12 -7 -7 -32 23 -34 42 -2 14 4 10 63 -44z m-162 -74 c-5 -8 7
-13 27 -11 8 2 32 -28 24 -29 -15 -3 -26 -7 -28 -9 -2 -1 -20 -3 -40 -4 -33
-2 -36 0 -27 16 5 10 7 18 3 18 -4 0 1 9 11 20 17 19 41 18 30 -1z m349 -17
c3 -5 -1 -9 -9 -9 -8 0 -12 4 -9 9 3 4 7 8 9 8 2 0 6 -4 9 -8z m-266 -51 c-7
-11 -16 -17 -21 -14 -4 3 0 11 10 19 24 18 25 17 11 -5z m-128 -29 c0 -4 -9
-8 -20 -9 -11 -1 -20 2 -20 5 0 4 9 8 20 9 11 1 20 -2 20 -5z m309 -104 c-8
-14 -14 -17 -22 -9 -7 7 -6 15 3 25 17 22 32 9 19 -16z m-195 2 c8 -8 7 -13
-3 -19 -15 -10 -47 5 -55 25 -5 14 42 10 58 -6z m12 -67 c-3 -17 -26 -32 -26
-16 0 8 20 33 26 33 1 0 1 -8 0 -17z m121 -32 c17 13 17 13 4 -4 -8 -9 -11
-20 -8 -23 3 -4 -5 -23 -18 -44 -13 -21 -21 -41 -17 -44 3 -4 -2 -4 -12 0 -16
6 -17 8 -2 16 9 5 14 13 11 19 -4 5 -1 9 5 9 13 0 5 47 -12 67 -12 15 -11 15
9 3 18 -12 24 -12 40 1z m-127 -5 c0 -2 -7 -7 -16 -10 -8 -3 -12 -2 -9 4 6 10
25 14 25 6z m41 -179 c-1 -12 -15 -9 -19 4 -3 6 1 10 8 8 6 -3 11 -8 11 -12z"/>
<path d="M1428 1783 c-2 -4 -3 -14 -2 -20 1 -7 2 -17 3 -23 2 -22 18 -8 17 15
-2 26 -11 41 -18 28z"/>
<path d="M1506 1596 c-20 -31 -5 -42 24 -18 19 15 20 19 7 30 -12 10 -17 8
-31 -12z m29 5 c3 -6 -5 -15 -17 -21 -21 -10 -21 -10 -6 3 10 8 15 17 11 20
-3 4 -4 7 0 7 3 0 8 -4 12 -9z"/>
<path d="M1240 1586 c0 -2 8 -10 18 -17 15 -13 16 -12 3 4 -13 16 -21 21 -21
13z"/>
<path d="M1113 1478 c-4 -7 -8 -22 -10 -33 -1 -11 1 -14 3 -7 3 6 10 12 15 12
6 0 8 -4 5 -9 -5 -8 15 -8 34 -1 3 1 9 2 13 1 5 -1 6 3 3 8 -4 5 -15 8 -26 6
-18 -3 -25 5 -21 28 2 11 -7 8 -16 -5z"/>
<path d="M1385 1289 c-4 -6 -5 -12 -2 -15 2 -3 7 2 10 11 7 17 1 20 -8 4z"/>
<path d="M1171 1283 c-1 -17 16 -25 25 -12 4 7 3 9 -4 5 -5 -3 -13 0 -15 6 -4
9 -6 10 -6 1z"/>
<path d="M1313 1145 c0 -8 4 -12 9 -9 5 3 6 10 3 15 -9 13 -12 11 -12 -6z"/>
<path d="M1575 1820 c-4 -6 -14 -9 -22 -8 -25 5 -24 -31 2 -48 16 -10 21 -21
17 -36 -4 -15 -2 -19 7 -14 7 5 10 11 7 14 -3 3 1 14 11 24 9 10 13 18 9 18
-3 0 1 11 10 25 9 14 21 22 27 18 6 -4 7 -1 2 6 -5 9 -10 10 -18 2 -6 -6 -16
-7 -28 -1 -12 7 -20 6 -24 0z m35 -20 c0 -5 -5 -12 -10 -15 -6 -4 -8 -10 -5
-15 11 -18 -12 -18 -35 1 -20 16 -21 18 -5 13 11 -4 17 -4 13 1 -11 12 11 35
28 28 8 -3 14 -9 14 -13z"/>
<path d="M1579 1808 c-6 -27 -5 -39 4 -45 7 -3 9 -3 5 2 -4 4 -3 14 3 21 7 8
7 14 -1 19 -5 3 -10 5 -11 3z"/>
<path d="M1327 1784 c-7 -8 3 -34 13 -34 9 0 8 26 -1 35 -3 3 -8 2 -12 -1z"/>
<path d="M1379 1736 c13 -15 13 -19 1 -26 -8 -5 -17 -7 -21 -4 -12 7 -24 -18
-24 -51 0 -26 -4 -30 -27 -30 -38 0 -56 -20 -30 -34 10 -6 22 -8 25 -5 6 6 54
-58 49 -66 -2 -2 2 -6 9 -9 8 -2 10 2 6 13 -10 26 -3 19 33 -31 19 -25 28 -43
20 -38 -8 5 -11 4 -6 -3 4 -7 -1 -10 -14 -7 -13 3 -18 0 -14 -7 5 -7 2 -8 -7
-3 -11 7 -11 5 1 -11 14 -18 14 -18 -5 -4 -18 14 -19 14 -7 -2 8 -9 10 -23 6
-29 -5 -8 -3 -9 6 -4 9 6 11 4 5 -5 -5 -8 -4 -11 2 -7 5 3 10 0 10 -8 0 -12
-3 -12 -16 -2 -12 10 -14 9 -8 -5 3 -10 1 -20 -5 -24 -7 -5 -8 -2 -3 6 6 9 4
11 -5 5 -9 -6 -11 -4 -5 5 6 9 4 11 -5 5 -8 -5 -11 -4 -6 3 3 6 2 13 -3 16 -5
3 -11 -3 -14 -14 -3 -13 -1 -18 6 -14 7 3 4 -1 -5 -9 -10 -8 -15 -16 -12 -19
3 -4 0 -9 -7 -14 -8 -5 -10 -3 -4 5 4 7 -5 5 -21 -5 -15 -11 -25 -14 -21 -7 5
8 1 11 -13 8 -11 -2 -18 0 -15 6 4 5 11 7 16 4 8 -6 13 9 10 28 -1 5 3 6 9 2
6 -3 7 0 4 9 -3 9 -1 16 6 16 6 0 9 -4 6 -9 -3 -5 1 -14 9 -21 23 -19 19 6 -4
29 -14 14 -16 21 -8 25 7 3 -1 3 -17 1 -16 -2 -25 -1 -21 3 6 7 10 8 36 11 5
0 7 6 4 11 -4 6 -11 7 -17 4 -6 -4 -6 0 1 13 6 11 7 23 4 27 -3 3 -1 6 6 6 8
0 10 -8 6 -22 -5 -21 -5 -21 9 2 9 14 15 19 16 12 0 -7 5 -10 11 -6 8 5 8 9
-1 14 -9 5 -9 9 -1 14 6 4 8 12 5 18 -4 7 -2 8 4 4 6 -4 8 -14 5 -22 -5 -14
-3 -14 16 -2 21 13 21 13 1 22 -11 5 -20 13 -20 19 0 5 -9 -2 -21 -17 -23 -29
-41 -30 -45 -2 -4 25 -11 30 -18 11 -4 -11 -2 -14 6 -9 7 4 8 3 4 -5 -11 -17
-26 -3 -19 16 6 15 5 16 -9 3 -9 -8 -14 -18 -12 -21 2 -4 -3 -12 -11 -19 -15
-13 -11 -35 5 -25 5 3 11 1 15 -4 3 -6 12 -8 20 -4 20 7 19 -12 -1 -32 -16
-15 -12 -30 7 -30 5 0 9 -3 9 -7 0 -5 0 -12 0 -16 0 -5 -9 -19 -20 -32 -15
-17 -17 -26 -9 -36 6 -7 8 -17 5 -22 -3 -6 1 -15 9 -22 7 -6 11 -18 8 -25 -3
-10 1 -13 16 -10 12 2 25 -3 32 -13 10 -16 10 -16 5 0 -3 11 2 22 14 28 11 6
20 8 20 4 0 -3 7 -1 15 6 12 10 13 16 4 27 -9 10 -8 18 5 31 9 10 13 22 9 25
-5 6 9 11 27 9 3 0 5 18 5 41 -1 47 10 68 31 60 16 -6 19 13 4 22 -8 5 -7 11
1 21 6 7 15 12 19 9 4 -3 13 2 20 10 9 11 9 15 1 15 -7 0 -9 5 -6 10 4 6 1 9
-5 8 -19 -5 -21 35 -3 54 9 10 13 21 10 25 -4 3 -7 1 -7 -5 0 -7 -5 -12 -10
-12 -5 0 -9 3 -7 8 1 4 -2 8 -7 9 -16 3 -25 27 -15 39 7 8 6 14 -1 19 -6 3 -8
10 -5 15 3 5 1 11 -5 15 -6 4 -8 10 -5 15 3 4 -8 16 -23 26 -25 16 -26 16 -13
0z m28 -23 c-4 -3 -2 -12 4 -20 6 -7 8 -13 4 -13 -4 0 -2 -6 4 -14 10 -11 7
-17 -11 -30 -12 -9 -19 -17 -15 -17 9 -2 25 -6 35 -9 4 -1 11 -2 16 -1 5 1 4
-5 -4 -13 -10 -13 -10 -16 1 -17 11 0 11 -2 1 -6 -10 -4 -10 -8 -1 -19 6 -8 8
-14 4 -14 -4 0 -2 -6 4 -14 9 -10 7 -18 -6 -33 -10 -10 -17 -17 -17 -16 2 7
-59 68 -67 68 -4 0 -20 15 -34 34 -14 19 -25 28 -26 20 0 -10 -2 -10 -6 -1 -2
6 -10 9 -16 5 -7 -3 -8 -2 -4 2 13 15 38 14 44 0 10 -27 30 7 28 47 -1 21 2
41 7 44 5 3 7 0 6 -7 -2 -6 4 -14 12 -17 8 -2 12 -1 7 3 -6 8 19 45 31 45 3 0
2 -3 -1 -7z m-87 -217 c0 -2 -8 -10 -17 -17 -16 -13 -17 -12 -4 4 13 16 21 21
21 13z m-54 -31 c2 -13 0 -15 -9 -6 -15 15 -30 14 -21 -1 6 -10 5 -10 -8 -1
-8 7 -19 9 -24 5 -4 -4 -3 0 4 9 16 21 55 17 58 -6z m85 -166 c-21 -17 -29
-41 -12 -36 5 1 9 -1 10 -5 1 -5 -2 -8 -6 -9 -5 -1 -17 -6 -28 -12 -34 -19
-48 -18 -33 1 11 13 11 15 -4 9 -19 -7 -31 7 -33 36 -2 17 0 17 15 -3 11 -15
22 -20 30 -15 8 5 11 4 7 -1 -3 -6 3 -10 13 -11 18 -2 18 -1 2 16 -11 11 -20
13 -24 7 -4 -6 -10 -7 -15 -3 -9 9 17 28 29 21 4 -3 15 7 24 21 14 21 19 23
31 13 13 -11 12 -14 -6 -29z"/>
<path d="M1387 1693 c-2 -5 -3 -16 -2 -25 4 -20 -6 -23 -21 -8 -8 8 -10 2 -9
-17 1 -15 -4 -35 -11 -43 -10 -12 -10 -18 1 -33 7 -10 15 -17 17 -15 5 4 53
-31 53 -40 0 -4 3 -6 8 -4 4 1 7 -4 7 -10 0 -9 3 -8 9 2 6 8 7 19 3 25 -4 5
-7 13 -8 18 -1 4 -3 9 -4 12 -1 3 -3 15 -4 28 0 12 -5 22 -11 22 -19 0 -34 16
-29 30 4 8 10 13 14 10 5 -3 11 -1 14 4 4 5 2 12 -4 16 -6 4 -8 10 -5 15 3 5
1 11 -4 14 -5 4 -12 3 -14 -1z m-11 -61 c3 -22 18 -42 29 -38 9 3 12 -4 8 -26
-3 -23 -1 -28 9 -22 7 4 10 4 6 -1 -4 -4 -3 -13 2 -20 7 -8 5 -12 -5 -12 -8 0
-12 4 -10 7 3 4 -13 20 -35 35 -41 29 -50 38 -27 29 10 -3 13 5 12 31 -1 19 1
33 4 29 3 -3 6 -9 7 -12z"/>
<path d="M1373 1590 c2 -11 9 -26 17 -33 8 -8 11 -8 6 0 -3 6 -3 13 2 15 4 1
0 11 -10 20 -17 17 -18 17 -15 -2z"/>
<path d="M1342 1325 c4 -4 -3 -16 -15 -25 -12 -10 -20 -20 -17 -22 3 -2 15 6
28 18 18 17 20 24 10 30 -7 4 -10 4 -6 -1z"/>
<path d="M1461 1668 c-13 -20 -12 -22 1 -11 10 9 18 9 25 2 7 -7 14 -4 24 7 8
10 9 15 2 11 -6 -4 -14 -3 -18 3 -10 15 -19 12 -34 -12z"/>
<path d="M1809 1603 c-13 -16 -12 -17 4 -4 9 7 17 15 17 17 0 8 -8 3 -21 -13z"/>
<path d="M1373 1504 c6 -11 -51 -61 -65 -56 -5 1 -8 -1 -9 -5 -6 -44 -4 -63 9
-79 12 -15 13 -15 9 -2 -6 18 18 33 28 18 4 -6 12 -10 18 -10 8 0 7 3 -2 9
-11 7 -11 9 0 13 11 4 12 8 2 20 -11 12 -9 18 8 34 12 10 23 17 24 14 2 -3 7
-2 11 3 4 4 2 7 -5 7 -7 0 -10 4 -7 9 3 5 -2 15 -11 22 -9 8 -14 9 -10 3z m-6
-48 c-19 -25 -23 -36 -14 -45 6 -6 8 -11 4 -11 -15 0 -23 -2 -39 -11 -32 -17
-11 34 28 69 47 41 53 41 21 -2z"/>
<path d="M1335 1440 c-10 -11 -14 -20 -9 -20 5 0 2 -5 -6 -10 -12 -7 -10 -9 8
-7 14 1 18 5 12 11 -6 6 -4 16 7 28 9 10 14 18 11 18 -3 0 -13 -9 -23 -20z"/>
<path d="M1106 1386 c3 -7 -2 -19 -10 -26 -9 -7 -13 -16 -10 -21 3 -5 0 -9 -7
-9 -8 0 -8 -4 1 -15 14 -17 15 -17 -28 -19 -30 -2 -31 0 -16 11 16 12 12 18
-9 14 -5 -1 -6 3 -2 9 5 8 11 8 19 1 12 -10 26 -5 26 9 0 12 -39 8 -51 -6 -6
-8 -8 -14 -4 -14 3 0 -2 -15 -13 -32 -11 -18 -17 -39 -14 -47 3 -9 0 -11 -8
-6 -9 5 -11 4 -6 -3 5 -9 13 -9 27 -2 10 6 19 13 19 16 0 3 -4 3 -9 -1 -11 -6
-6 34 5 44 4 3 4 -2 1 -11 -3 -10 -1 -20 5 -24 7 -4 8 -3 4 4 -5 8 -1 10 9 5
14 -5 14 -8 3 -15 -9 -7 -7 -8 7 -4 20 6 20 6 1 -9 -11 -8 -17 -16 -13 -16 4
-1 12 -3 17 -4 6 -1 13 -3 16 -4 4 0 1 -8 -6 -16 -7 -8 -16 -13 -20 -10 -5 3
-11 1 -15 -5 -8 -13 18 -13 32 1 8 8 13 7 18 -2 5 -8 4 -10 -3 -5 -7 4 -10 2
-6 -7 7 -19 31 -17 29 3 0 9 -9 27 -18 40 -17 24 -17 26 9 48 14 13 23 26 20
30 -4 3 -11 0 -16 -8 -6 -10 -10 -11 -10 -3 0 17 71 64 84 55 25 -15 38 -11
21 8 -9 9 -15 23 -13 30 2 7 -4 14 -12 16 -8 1 -25 5 -37 8 -15 3 -20 1 -17
-8z m38 -37 c-15 -16 -30 -26 -35 -24 -4 3 -10 -1 -13 -7 -2 -7 -4 -4 -3 7 3
27 16 47 27 40 5 -3 11 -2 14 3 3 5 12 9 21 9 11 0 9 -8 -11 -28z m-94 -71 c0
-10 2 -10 9 0 7 11 9 11 14 -1 8 -22 -2 -28 -24 -14 -20 13 -25 27 -9 27 6 0
10 -6 10 -12z"/>
<path d="M1135 1360 c-4 -6 -10 -8 -15 -5 -5 3 -11 1 -14 -4 -12 -19 12 -20
29 -1 10 11 15 20 12 20 -3 0 -9 -5 -12 -10z"/>
<path d="M1275 1329 c-10 -15 3 -25 16 -12 7 7 7 13 1 17 -6 3 -14 1 -17 -5z"/>
<path d="M1056 1312 c-3 -5 1 -9 9 -9 8 0 12 4 9 9 -3 4 -7 8 -9 8 -2 0 -6 -4
-9 -8z"/>
<path d="M1125 1239 c-3 -4 0 -11 5 -14 8 -5 6 -13 -5 -25 -9 -10 -18 -27 -19
-37 -3 -16 -10 -19 -47 -14 -5 0 -7 6 -3 12 5 8 1 8 -14 0 -15 -8 -21 -7 -26
4 -5 13 9 29 26 30 3 0 10 5 15 10 4 6 4 7 -1 3 -12 -10 -38 11 -30 24 4 6 -5
2 -19 -7 -15 -9 -32 -13 -39 -9 -7 4 -10 4 -6 -1 4 -4 1 -14 -7 -21 -8 -8 -12
-21 -9 -28 3 -7 -2 -16 -11 -20 -10 -3 -15 -12 -12 -19 3 -8 -4 -19 -14 -26
-11 -6 -17 -16 -14 -21 3 -5 1 -11 -5 -15 -7 -4 -7 -12 0 -24 5 -10 6 -21 3
-25 -3 -3 -1 -6 5 -6 15 0 24 17 13 24 -13 8 -6 42 8 39 6 -2 11 2 11 8 0 5 4
8 9 5 5 -3 15 2 22 12 7 9 9 14 5 10 -12 -10 -38 11 -30 24 4 5 11 5 18 -1 9
-8 13 -7 13 4 0 8 -5 11 -10 8 -6 -3 -7 -1 -3 6 4 6 12 8 18 5 6 -4 8 -1 6 7
-3 8 -11 13 -18 11 -11 -3 -11 0 -1 12 7 9 17 14 21 11 5 -3 10 0 12 7 3 7 7
5 11 -6 4 -9 3 -15 -1 -12 -4 2 -8 -4 -9 -14 -2 -23 22 -46 32 -30 3 5 11 10
18 10 6 0 2 -6 -9 -14 -10 -8 -16 -18 -11 -22 4 -4 7 -2 7 5 0 7 4 10 9 6 5
-3 13 -1 16 5 5 8 12 7 23 -2 13 -11 14 -11 7 1 -5 10 -4 12 4 7 8 -6 9 -12 2
-20 -6 -7 -8 -16 -4 -19 9 -10 25 -9 19 1 -2 4 -1 14 3 21 6 9 11 10 15 2 4
-6 2 -11 -5 -11 -8 0 -6 -5 4 -12 11 -9 14 -18 8 -27 -6 -9 -11 -10 -15 -2 -4
6 -2 11 5 11 7 0 9 3 6 6 -4 4 -13 1 -22 -6 -11 -9 -15 -9 -15 -1 0 7 -5 9
-11 5 -8 -4 -7 -9 2 -16 11 -7 10 -8 -4 -4 -11 3 -16 2 -12 -4 3 -6 1 -10 -5
-10 -6 0 -8 11 -6 24 3 19 1 23 -11 19 -12 -5 -12 -7 -1 -14 10 -7 11 -9 0 -9
-8 0 -10 -5 -6 -12 5 -8 0 -7 -11 2 -10 8 -16 10 -12 4 7 -12 -21 -12 -40 -1
-6 4 -14 3 -18 -3 -3 -5 1 -10 9 -10 9 0 16 -4 16 -10 0 -12 -22 -9 -33 5 -5
6 -7 3 -4 -6 3 -9 0 -22 -6 -29 -9 -10 -9 -11 3 -5 8 5 12 5 8 0 -4 -4 -3 -16
3 -27 7 -13 7 -23 0 -32 -8 -10 -7 -17 6 -27 17 -13 17 -13 3 6 -14 19 -14 19
5 5 18 -13 19 -13 9 0 -5 8 -9 25 -8 38 0 12 -3 22 -8 22 -5 0 -6 5 -2 11 4 8
9 7 16 -2 7 -11 8 -10 4 4 -4 12 -2 16 6 11 7 -5 8 -3 3 6 -5 9 -4 11 3 6 8
-5 10 -2 6 8 -3 9 -1 16 6 16 6 0 9 -4 5 -9 -3 -5 0 -13 6 -17 8 -5 9 -3 4 6
-5 8 7 4 26 -9 25 -16 28 -17 12 -3 -12 11 -19 22 -16 26 7 7 39 -35 35 -46
-3 -12 13 -9 27 5 11 10 12 9 6 -2 -6 -10 -4 -12 5 -6 9 6 11 4 5 -6 -7 -12
-5 -12 6 -1 12 11 12 14 -1 22 -9 6 -10 10 -3 10 6 0 15 -5 18 -10 9 -14 -14
-42 -28 -33 -6 4 -7 1 -2 -8 7 -11 5 -11 -11 1 -18 14 -18 14 -5 -2 7 -10 17
-16 20 -13 4 2 8 -2 8 -10 0 -11 -4 -12 -14 -4 -13 12 -19 -2 -6 -15 11 -10
13 -37 2 -31 -5 4 -6 -1 -2 -10 5 -14 8 -14 15 -3 7 10 8 8 4 -5 -4 -12 -2
-16 7 -11 9 5 9 4 0 -7 -18 -19 -16 -32 5 -25 10 4 7 -2 -8 -14 -24 -20 -24
-21 -6 -35 10 -8 23 -12 29 -8 6 3 7 1 3 -5 -4 -6 -13 -9 -22 -5 -11 4 -14 0
-10 -21 3 -18 1 -24 -6 -20 -7 5 -9 1 -5 -9 3 -9 1 -19 -5 -23 -7 -5 -8 -2 -3
5 6 10 3 11 -14 2 -16 -9 -20 -18 -16 -41 3 -18 1 -30 -5 -30 -6 0 -9 4 -6 8
3 5 -1 9 -9 9 -8 0 -15 -4 -15 -9 0 -4 6 -8 13 -8 8 0 7 -4 -3 -11 -12 -8 -9
-9 10 -4 l25 6 -25 -15 c-14 -9 -19 -15 -12 -16 9 0 9 -6 -3 -23 -8 -13 -13
-27 -10 -30 3 -4 2 -5 -2 -2 -3 3 -17 -2 -29 -10 -20 -13 -25 -13 -46 5 -13
11 -17 19 -10 20 7 0 10 5 6 11 -4 8 -9 7 -15 -2 -6 -11 -11 -10 -26 2 -30 26
-47 34 -38 18 8 -12 6 -12 -8 0 -15 12 -20 11 -35 -3 -10 -9 -22 -16 -27 -16
-5 0 -1 6 9 13 16 12 16 14 2 14 -9 0 -16 -3 -16 -7 0 -4 -7 -7 -16 -7 -12 0
-10 5 7 19 13 10 17 17 9 16 -8 -2 -21 -10 -30 -18 -14 -14 -14 -14 -5 0 8 13
7 13 -10 -1 -32 -26 -49 -34 -40 -19 5 9 4 11 -3 6 -18 -11 -14 -29 4 -22 10
4 26 -1 37 -11 11 -10 17 -13 14 -6 -4 6 -2 15 4 19 8 5 9 3 4 -7 -7 -11 -5
-11 10 1 10 8 16 10 13 5 -4 -6 2 -11 12 -11 10 0 17 3 14 7 -2 4 3 12 11 19
16 13 35 6 35 -13 0 -7 -4 -6 -10 3 -8 13 -11 13 -22 1 -11 -11 -11 -13 1 -6
10 6 12 4 6 -5 -6 -9 -4 -11 5 -5 9 6 11 4 5 -6 -8 -12 -6 -12 8 0 9 7 17 9
17 3 0 -5 7 -13 16 -16 10 -4 13 -2 9 7 -4 6 0 4 8 -6 10 -12 17 -14 22 -8 3
6 1 11 -6 11 -7 0 -10 3 -6 6 3 3 22 -7 43 -22 42 -33 65 -39 57 -16 -5 11 -3
13 8 7 8 -4 11 -5 7 0 -4 4 -3 14 3 22 6 7 8 13 3 13 -5 0 -2 5 6 10 8 5 15
13 15 17 1 4 6 18 13 31 7 12 9 22 5 22 -4 0 2 7 13 15 10 8 15 15 9 15 -5 0
-3 5 5 10 11 7 11 10 2 10 -7 0 -10 5 -7 10 4 6 11 7 17 4 7 -4 8 -2 4 4 -4 7
-3 12 2 12 6 0 9 13 8 29 -1 20 2 27 11 24 7 -3 14 0 14 6 2 15 4 23 14 45 6
13 3 21 -8 27 -9 6 -14 18 -12 31 3 12 -3 30 -12 40 -15 17 -15 19 2 38 16 18
20 18 34 6 20 -18 44 -7 31 14 -14 22 -12 33 6 26 9 -3 12 -2 9 4 -4 6 3 21
13 35 14 17 22 21 25 13 3 -7 3 5 1 27 -3 22 -5 46 -6 52 -1 7 -6 9 -12 5 -6
-5 -27 -8 -46 -8 -32 1 -35 4 -35 31 0 17 5 39 11 50 16 31 11 50 -14 51 -12
1 -25 -2 -27 -7z m32 -31 c-7 -4 -8 -8 -4 -8 5 0 5 -6 0 -12 -19 -32 -4 -96
20 -81 5 3 7 2 4 -3 -3 -6 -2 -15 2 -22 5 -9 12 -8 27 3 16 13 16 14 2 9 -10
-3 -18 -2 -18 3 0 5 11 9 24 9 14 0 22 -4 20 -8 -3 -4 1 -8 8 -9 10 0 10 -2
-1 -6 -11 -5 -11 -7 0 -15 11 -8 10 -9 -3 -4 -20 6 -35 -10 -16 -17 10 -3 8
-10 -6 -25 -10 -12 -22 -19 -26 -17 -10 6 -21 -21 -12 -29 3 -4 7 -14 8 -22 2
-14 1 -14 -15 0 -16 14 -19 14 -33 -1 -15 -14 -16 -14 -14 0 1 8 8 22 16 31
11 15 11 19 -3 33 -13 13 -19 14 -31 3 -13 -10 -19 -10 -32 1 -14 11 -13 15 8
30 15 12 27 14 34 8 18 -15 40 17 24 36 -7 8 -9 15 -5 15 4 0 2 7 -5 15 -7 8
-17 12 -24 8 -7 -4 -6 -1 1 9 7 8 9 19 5 24 -4 4 1 2 11 -5 10 -8 17 -9 17 -3
0 6 -5 14 -11 17 -7 5 -5 13 5 24 13 14 13 20 3 30 -9 11 -7 11 10 0 16 -9 19
-16 10 -21z m-132 3 c3 -5 2 -12 -3 -15 -5 -3 -9 1 -9 9 0 17 3 19 12 6z m-11
-57 c3 -8 2 -12 -4 -9 -6 3 -10 10 -10 16 0 14 7 11 14 -7z m-68 -56 c4 -7 4
-10 -1 -6 -4 4 -17 3 -29 -3 -20 -10 -20 -10 -2 5 24 19 23 19 32 4z m193
-222 c-3 -3 -11 5 -18 17 -13 21 -12 21 5 5 10 -10 16 -20 13 -22z m6 -56 c-3
-5 -1 -10 5 -10 6 0 9 -4 5 -9 -5 -9 -45 -11 -45 -2 0 4 32 30 38 31 2 0 0 -4
-3 -10z m-59 -155 c0 -28 -8 -24 -13 5 -2 11 1 20 5 20 4 0 8 -11 8 -25z
m-326 -101 c0 -8 -19 -13 -24 -6 -3 5 1 9 9 9 8 0 15 -2 15 -3z m139 -8 c10
-12 9 -14 -5 -12 -10 2 -20 8 -22 14 -5 17 13 15 27 -2z m109 -40 c-10 -7 -14
-17 -10 -21 4 -5 1 -5 -7 0 -12 7 -11 10 4 22 24 17 36 17 13 -1z"/>
<path d="M1154 1093 c6 -9 3 -20 -9 -33 -17 -19 -17 -21 0 -40 17 -19 17 -21
-1 -42 -11 -13 -13 -18 -3 -11 12 10 18 10 29 0 12 -10 12 -9 2 4 -9 12 -9 20
3 35 8 10 15 15 15 10 0 -5 7 -3 15 4 15 13 12 30 -7 30 -6 0 -7 -8 -3 -17 5
-15 4 -16 -7 -5 -10 10 -7 17 17 38 21 18 23 21 5 10 -23 -15 -26 -15 -45 7
-11 13 -16 17 -11 10z m21 -52 c-2 -29 -10 -34 -25 -16 -10 12 -10 18 0 30 15
19 27 12 25 -14z"/>
<path d="M1154 1049 c-3 -6 -2 -15 3 -20 5 -5 9 -1 9 11 0 23 -2 24 -12 9z"/>
<path d="M1094 1045 c-4 -8 -11 -12 -17 -8 -6 3 -7 1 -3 -5 5 -9 13 -9 27 -2
11 6 17 15 14 21 -9 13 -15 11 -21 -6z"/>
<path d="M978 1144 c-3 -5 -4 -17 -3 -26 3 -19 -42 -61 -55 -53 -9 6 -8 -15 2
-30 3 -6 1 -18 -6 -27 -10 -14 -14 -14 -31 -2 -10 8 -13 14 -6 14 7 0 9 5 5
11 -8 14 -24 -9 -18 -26 3 -7 -2 -15 -11 -19 -9 -3 -14 -10 -11 -15 3 -5 -1
-14 -9 -21 -8 -7 -12 -17 -9 -22 3 -5 -2 -16 -12 -23 -11 -8 -14 -15 -9 -15 6
0 3 -5 -5 -10 -12 -7 -10 -9 8 -7 22 1 32 17 10 17 -6 0 -8 3 -4 7 4 5 15 -1
23 -12 13 -17 15 -17 9 -2 -4 13 -2 16 7 11 7 -5 6 0 -3 12 -13 17 -13 18 0 9
9 -5 8 -2 -2 7 -11 10 -14 19 -8 23 5 3 10 1 10 -6 0 -8 4 -8 16 2 14 12 14
14 -3 27 -14 12 -14 13 -2 9 9 -3 22 0 29 6 10 9 11 9 6 0 -3 -6 -2 -14 4 -18
6 -4 8 -10 5 -15 -3 -5 3 -14 12 -20 16 -11 16 -11 -2 -6 -20 6 -20 6 -1 -9
11 -8 16 -15 11 -15 -4 0 0 -9 10 -20 10 -11 23 -20 28 -20 6 0 2 7 -9 16 -10
8 -13 12 -5 8 10 -5 12 -3 7 7 -4 8 -1 5 8 -5 8 -10 13 -23 10 -27 -3 -5 -1
-9 4 -9 16 0 21 13 12 31 -6 10 -6 20 -1 23 11 7 34 -20 27 -32 -3 -6 2 -16
11 -23 14 -12 16 -12 9 1 -4 8 0 6 8 -4 9 -11 16 -15 16 -10 0 6 -6 16 -12 24
-11 12 -10 12 4 2 14 -12 16 -9 13 28 -2 23 -1 39 3 36 3 -3 6 -21 7 -39 2
-19 7 -31 14 -29 7 1 10 -2 6 -8 -3 -6 -11 -8 -16 -5 -13 9 -11 -9 4 -24 9
-11 9 -12 0 -7 -9 5 -11 1 -7 -11 5 -15 4 -16 -5 -3 -9 13 -11 13 -11 0 0 -13
-2 -13 -9 0 -6 8 -8 17 -5 21 2 4 -3 10 -12 13 -8 3 -13 2 -10 -3 3 -4 -13 -7
-35 -7 -22 1 -44 7 -48 14 -4 7 -7 -7 -7 -32 1 -24 5 -42 9 -39 5 3 3 -4 -4
-15 -7 -12 -18 -18 -23 -15 -6 4 -5 8 2 11 7 2 9 8 6 13 -3 6 -12 2 -21 -8 -8
-10 -12 -12 -8 -6 4 9 0 11 -12 7 -15 -5 -16 -4 -3 6 13 10 13 11 0 7 -8 -2
-14 -12 -12 -22 2 -11 -1 -14 -8 -10 -6 4 -9 13 -7 19 3 7 -1 13 -9 13 -17 0
-18 -9 -1 -26 9 -11 9 -12 0 -7 -9 5 -11 2 -6 -9 5 -14 8 -14 15 -3 8 10 9 10
6 -1 -6 -21 -28 -26 -28 -6 0 9 -5 13 -10 10 -6 -4 -8 -11 -5 -16 3 -5 -1 -6
-9 -3 -19 7 -21 20 -4 30 7 5 8 2 3 -7 -5 -8 -4 -10 0 -6 14 13 14 34 -1 34
-7 0 -10 -5 -7 -11 4 -8 3 -8 -6 0 -15 14 -24 57 -9 48 6 -4 8 -3 5 3 -7 12
16 47 32 49 6 1 16 2 23 3 15 1 2 14 -17 17 -8 1 -15 -2 -15 -7 0 -6 -4 -8 -9
-4 -11 6 -43 -34 -36 -45 3 -4 -2 -13 -10 -20 -7 -6 -11 -19 -8 -27 5 -12 3
-14 -7 -8 -8 5 -11 4 -7 -2 4 -6 0 -14 -9 -17 -8 -3 -13 -10 -9 -15 3 -5 1
-12 -4 -16 -6 -3 -7 -13 -4 -22 5 -12 3 -14 -8 -8 -11 7 -11 5 1 -10 14 -17
13 -18 -5 -11 -11 4 -16 4 -13 0 4 -3 -3 -23 -16 -43 -13 -20 -21 -42 -19 -48
3 -7 1 -13 -5 -13 -11 0 -36 -51 -33 -69 1 -8 -2 -10 -11 -5 -7 4 -10 4 -6 -1
4 -4 -2 -21 -13 -36 -11 -16 -17 -29 -12 -29 4 0 1 -5 -7 -10 -13 -8 -13 -10
0 -10 10 0 7 -5 -8 -16 -12 -8 -20 -19 -18 -22 6 -10 403 -9 413 1 4 5 8 12 8
15 1 4 6 17 13 28 6 12 8 24 5 28 -3 3 -1 6 5 6 7 0 12 4 12 9 0 8 -8 8 -39 2
-2 -1 2 -8 9 -16 9 -11 9 -15 1 -15 -7 0 -9 -5 -5 -12 4 -6 3 -8 -4 -4 -6 3
-13 2 -17 -4 -4 -6 -11 -8 -16 -5 -5 4 -9 1 -9 -5 0 -7 7 -9 18 -5 12 4 14 3
6 -5 -13 -13 -47 -2 -38 12 4 6 -4 4 -17 -3 -13 -7 -28 -12 -33 -11 -5 2 -12
-2 -15 -7 -4 -6 -12 -1 -20 10 -9 16 -9 19 0 14 8 -5 10 -4 5 4 -4 6 -12 9
-17 6 -5 -4 -9 -1 -9 4 0 6 4 11 8 11 4 0 8 9 9 19 1 14 -4 19 -18 18 -10 -1
-19 -5 -19 -10 0 -5 7 -7 15 -3 13 5 14 2 4 -17 -16 -30 -24 -36 -16 -12 l7
20 -16 -20 -17 -20 7 20 c6 16 5 17 -5 8 -10 -10 -9 -16 4 -31 9 -10 17 -22
17 -25 0 -8 -30 -4 -47 6 -6 4 -13 4 -16 0 -2 -5 -2 -2 0 5 1 8 -2 10 -9 6 -6
-4 -8 -3 -5 3 3 5 0 10 -8 10 -8 0 -15 -4 -15 -9 0 -4 -5 -8 -11 -8 -8 0 -8 5
1 15 9 11 10 19 1 28 -6 8 -7 18 -3 23 4 5 3 6 -3 1 -5 -4 -13 -7 -19 -7 -5 0
-1 6 10 14 10 8 16 18 11 22 -4 4 -7 2 -7 -5 0 -7 -5 -9 -11 -5 -8 4 -7 9 2
15 7 4 10 11 6 16 -5 4 -12 1 -17 -7 -6 -9 -10 -10 -10 -3 0 7 8 17 18 22 9 6
11 11 5 11 -7 0 -13 5 -13 11 0 8 6 7 17 -2 15 -12 16 -12 8 1 -7 12 -6 13 6
3 9 -7 25 -11 38 -8 14 3 20 0 16 -8 -4 -7 1 -3 9 7 9 11 16 15 16 10 0 -6 -6
-16 -12 -24 -10 -11 -9 -11 7 0 19 14 19 14 5 -5 -14 -18 -13 -19 1 -8 9 7 20
9 24 5 5 -4 5 -1 0 7 -5 9 -4 12 3 7 8 -5 10 -1 5 10 -5 13 -1 12 16 -5 17
-17 26 -20 34 -12 8 8 16 6 31 -7 17 -14 16 -12 -3 13 -24 32 -78 44 -88 19
-4 -10 -10 -8 -23 9 -15 18 -21 20 -31 9 -18 -17 -26 -15 -26 6 0 22 16 44 28
36 5 -3 20 4 34 14 25 20 62 23 58 5 -1 -6 14 -9 33 -8 21 2 43 -4 58 -16 16
-13 27 -16 31 -9 9 15 35 -7 29 -24 -8 -22 21 -25 47 -6 19 15 24 28 24 67 0
36 4 48 15 48 8 0 15 7 15 16 0 9 12 28 26 43 25 25 30 49 15 74 -4 7 -4 18 1
25 11 16 10 37 -4 63 -9 15 -9 24 -1 32 8 8 7 13 -6 18 -11 4 -13 10 -7 18 13
16 -26 65 -56 71 -35 6 -61 -52 -39 -83 17 -24 -16 -34 -39 -11 -17 17 -18 21
-5 29 13 9 13 11 0 20 -8 5 -11 10 -6 10 5 0 3 6 -3 14 -8 10 -9 16 -1 21 6 3
8 11 4 16 -10 16 27 51 41 39 8 -7 19 -4 35 10 13 11 27 20 32 20 19 0 23 -2
20 -12 -1 -5 2 -7 7 -4 8 5 8 19 2 44 -1 2 -11 -4 -23 -12 -21 -15 -24 -14
-44 11 -11 14 -23 22 -26 17z m17 -25 c-4 -5 0 -9 7 -9 9 0 9 -3 -2 -10 -8 -5
-11 -10 -7 -10 5 0 5 -5 2 -10 -4 -6 -11 -8 -16 -4 -6 3 -6 10 -1 17 5 7 8 20
7 30 -2 9 1 15 6 11 5 -3 7 -10 4 -15z m51 -130 c5 1 10 -3 10 -9 1 -5 2 -15
3 -21 0 -5 7 -7 14 -3 6 4 4 -1 -5 -12 -9 -11 -15 -31 -14 -47 2 -15 1 -25 -2
-22 -3 2 -12 -1 -20 -8 -13 -10 -14 -9 -8 1 5 8 1 21 -10 33 -9 10 -13 19 -8
19 5 0 2 5 -7 10 -18 10 -18 56 0 52 6 -1 14 5 18 14 4 11 8 12 13 4 4 -6 11
-11 16 -11z m-125 -6 c-11 -5 -11 -7 0 -14 12 -7 12 -10 0 -21 -9 -8 -11 -9
-7 -1 3 6 2 14 -4 18 -13 8 -3 25 13 24 8 0 7 -3 -2 -6z m24 -72 c3 -5 2 -12
-3 -15 -5 -3 -9 1 -9 9 0 17 3 19 12 6z m96 -112 c4 -8 19 -14 31 -14 16 0 23
-6 23 -20 0 -24 -54 -87 -68 -78 -6 4 -8 0 -4 -10 3 -9 2 -19 -4 -22 -5 -4 -7
-17 -5 -31 3 -14 1 -22 -5 -19 -12 8 -12 -8 1 -21 7 -7 2 -18 -15 -34 -14 -13
-25 -20 -25 -17 0 18 -2 23 -17 39 -12 13 -20 15 -29 7 -9 -7 -16 -5 -26 8 -8
11 -25 18 -43 18 -16 0 -36 4 -44 10 -7 5 -29 10 -47 10 -26 1 -33 -3 -32 -14
2 -9 -4 -16 -13 -16 -28 0 -49 -26 -44 -52 3 -19 1 -22 -9 -14 -7 6 -17 7 -22
3 -4 -4 -2 1 5 10 7 9 9 23 5 29 -4 7 -3 10 2 7 5 -3 15 0 22 8 10 11 10 14 0
14 -10 0 -10 2 0 9 8 4 14 12 15 17 1 5 5 8 9 7 8 -3 12 12 9 30 0 4 4 7 9 7
6 0 10 -5 10 -11 0 -5 4 -8 10 -4 10 6 3 35 -8 33 -22 -2 -21 6 2 37 15 19 25
39 21 44 -3 5 0 13 6 17 7 4 9 3 6 -3 -4 -6 0 -18 7 -29 8 -10 12 -24 9 -30
-5 -14 8 -24 42 -30 18 -3 29 2 40 20 15 23 29 27 50 14 6 -3 22 7 37 22 19
20 22 27 11 26 -9 0 -17 8 -18 20 -1 18 4 20 43 19 25 -2 48 -8 53 -16z m-311
-263 c0 -2 -7 -7 -16 -10 -8 -3 -12 -2 -9 4 6 10 25 14 25 6z m100 -18 c0 -11
-12 -10 -30 2 -12 7 -10 9 8 7 12 0 22 -5 22 -9z m-202 -73 c-2 -8 6 -21 17
-29 20 -16 20 -16 -5 -36 -15 -12 -18 -18 -7 -14 9 3 17 2 17 -3 0 -5 -15 -9
-34 -9 -27 0 -33 4 -31 18 2 10 0 18 -5 18 -13 0 -6 26 15 54 19 25 38 26 33
1z m169 -72 c17 -15 16 -20 -2 -20 -8 0 -13 3 -10 5 3 3 -3 11 -13 19 -13 10
-13 13 -2 11 8 -2 20 -8 27 -15z m-227 -11 c0 -5 -7 -9 -15 -9 -8 0 -12 4 -9
9 3 4 9 8 15 8 5 0 9 -4 9 -8z m120 0 c0 -5 -7 -9 -15 -9 -8 0 -12 4 -9 9 3 4
9 8 15 8 5 0 9 -4 9 -8z m200 0 c0 -5 -7 -9 -15 -9 -8 0 -12 4 -9 9 3 4 9 8
15 8 5 0 9 -4 9 -8z"/>
<path d="M1014 978 c-3 -5 -9 -6 -14 -3 -14 9 -5 -30 10 -42 8 -7 11 -13 6
-13 -5 0 -3 -7 4 -15 7 -8 16 -12 22 -9 5 3 5 11 -2 19 -8 9 -6 14 5 19 12 4
13 10 6 25 -6 10 -8 20 -6 23 3 3 -2 5 -10 5 -9 0 -18 -4 -21 -9z m27 -19 c8
-15 8 -19 0 -15 -6 4 -11 2 -11 -5 0 -10 -3 -10 -11 -2 -11 11 -6 43 5 43 3 0
10 -10 17 -21z"/>
<path d="M966 799 c2 -4 -2 -10 -8 -13 -7 -3 -3 -3 9 -1 12 3 24 1 28 -5 3 -5
2 -10 -4 -10 -5 0 -22 -13 -37 -29 -15 -17 -33 -27 -38 -23 -14 8 -40 12 -32
5 10 -10 -37 -38 -64 -38 -26 0 -55 28 -45 44 3 5 1 12 -4 15 -5 4 -20 -8 -32
-26 -13 -17 -18 -28 -11 -25 6 4 16 -1 22 -12 7 -13 7 -22 0 -26 -5 -3 -10
-12 -10 -18 0 -7 4 -6 10 3 9 13 10 13 10 0 0 -12 2 -13 9 -1 7 11 9 11 14 0
4 -11 6 -11 6 1 1 10 5 9 15 -6 11 -15 24 -20 51 -19 26 2 39 -3 46 -17 10
-18 29 -16 29 3 0 6 -4 8 -9 4 -5 -3 -13 0 -17 6 -4 7 -3 9 2 6 6 -3 11 4 11
16 2 17 0 19 -7 7 -9 -13 -10 -13 -10 0 0 13 -1 13 -10 0 -9 -13 -10 -13 -10
0 0 13 -1 13 -10 0 -9 -13 -10 -13 -10 0 0 13 -2 13 -11 0 -9 -12 -10 -12 -5
3 4 12 2 17 -6 14 -7 -2 -12 -10 -11 -16 2 -6 -2 -11 -8 -11 -6 0 -8 7 -5 16
4 10 2 13 -6 8 -6 -4 -8 -3 -5 4 4 5 18 9 32 7 14 -1 28 2 31 7 3 4 10 6 15 3
5 -4 9 -2 9 4 0 5 -5 11 -12 13 -8 3 -6 7 5 11 9 3 16 3 16 -1 -3 -19 2 -29
16 -29 8 0 15 4 15 9 0 4 -4 8 -10 8 -5 0 -10 6 -10 13 1 6 10 1 21 -12 14
-17 17 -27 9 -35 -13 -13 -13 -29 -1 -21 5 3 13 0 17 -6 5 -8 3 -9 -6 -4 -9 6
-11 4 -5 -5 6 -9 4 -11 -4 -5 -18 10 2 -27 23 -44 9 -8 13 -18 9 -25 -3 -6 3
-2 15 8 17 15 19 22 11 33 -8 9 -8 17 0 26 6 8 8 17 5 20 -3 3 -2 12 2 19 5 7
9 20 9 28 0 8 5 14 11 13 16 -3 57 44 59 66 1 13 -4 18 -16 16 -9 -2 -25 5
-35 16 -13 14 -20 16 -31 8 -7 -6 -13 -7 -13 -2 0 5 -7 10 -15 10 -8 0 -12 -4
-9 -8z m74 -49 c-10 -7 -11 -10 -2 -10 7 0 15 7 19 16 5 12 7 13 14 2 9 -14
-28 -61 -41 -53 -10 6 -35 -24 -27 -32 4 -3 2 -12 -5 -20 -6 -7 -8 -16 -5 -20
4 -3 2 -12 -4 -20 -9 -9 -8 -17 0 -27 19 -22 -4 -28 -24 -6 -14 15 -15 23 -6
34 9 10 9 16 1 21 -6 4 -9 13 -6 20 2 7 -2 21 -9 32 -12 16 -11 21 12 45 14
14 31 24 38 21 9 -3 12 2 11 14 -5 31 5 36 28 14 18 -19 19 -23 6 -31z m-276
-24 c-3 -8 -1 -17 5 -20 6 -4 8 -13 5 -21 -4 -10 0 -13 17 -10 17 3 20 2 11
-7 -13 -13 -45 -20 -37 -9 2 5 -2 17 -9 27 -10 13 -11 24 -5 36 11 21 21 24
13 4z"/>
<path d="M1013 773 c0 -41 -3 -46 -16 -34 -11 8 -19 5 -37 -15 l-24 -25 22 -6
c12 -3 22 -10 22 -15 0 -5 -4 -7 -9 -3 -10 6 -6 -33 4 -43 2 -3 0 -11 -7 -19
-9 -11 -7 -18 7 -31 18 -16 18 -16 6 1 -10 12 -11 20 -2 30 6 8 8 17 4 20 -3
4 -1 13 5 20 7 8 9 17 5 20 -8 9 27 48 37 42 4 -2 16 5 26 18 15 17 15 19 2 8
-21 -16 -44 -5 -28 14 7 9 6 16 -4 24 -10 9 -13 8 -13 -6z m3 -45 c5 4 0 -3
-10 -15 -13 -16 -23 -20 -31 -13 -6 5 -16 6 -21 2 -5 -4 0 3 10 15 13 16 23
20 31 13 6 -5 16 -6 21 -2z"/>
<path d="M976 721 c-4 -5 -2 -12 3 -15 5 -4 12 -2 15 3 4 5 2 12 -3 15 -5 4
-12 2 -15 -3z"/>
<path d="M865 660 c-5 -8 62 -7 69 1 3 2 -11 5 -30 5 -20 0 -37 -3 -39 -6z"/>
<path d="M716 635 c-3 -9 -10 -14 -14 -11 -5 3 -9 -1 -9 -7 0 -7 10 -13 21
-14 12 -1 15 1 8 4 -10 4 -10 8 -1 19 7 8 10 17 7 20 -3 3 -8 -2 -12 -11z"/>
<path d="M597 432 c-10 -10 -14 -21 -11 -24 3 -4 7 -13 10 -22 6 -23 6 -23 34
-3 l24 17 -22 16 c-12 8 -20 20 -17 25 10 15 -1 10 -18 -9z m20 -47 c-9 -8
-15 -12 -12 -9 2 4 0 14 -5 24 -13 24 0 34 19 15 14 -13 14 -17 -2 -30z"/>
<path d="M606 407 c3 -10 9 -15 12 -12 3 3 0 11 -7 18 -10 9 -11 8 -5 -6z"/>
<path d="M1773 1125 c0 -8 4 -12 9 -9 5 3 6 10 3 15 -9 13 -12 11 -12 -6z"/>
<path d="M1686 965 c-11 -8 -15 -15 -9 -15 6 0 16 7 23 15 16 19 11 19 -14 0z"/>
<path d="M883 965 c4 -5 0 -16 -9 -26 -10 -11 -12 -19 -5 -24 7 -4 6 -14 -5
-30 -9 -13 -15 -26 -15 -29 3 -19 -1 -23 -21 -22 -14 1 -22 -4 -20 -11 1 -7
-3 -13 -9 -13 -5 0 -7 -5 -3 -11 4 -8 9 -7 15 2 7 11 9 11 9 -1 0 -13 1 -13
11 0 9 13 10 13 6 0 -2 -8 -13 -16 -25 -16 -35 -2 -38 -4 -23 -13 8 -5 22 -6
30 -2 9 4 37 7 62 6 l47 -1 -3 38 c-3 38 10 62 21 35 2 -7 11 -14 18 -14 6 0
-7 20 -30 43 -30 29 -42 49 -39 63 2 11 -2 24 -8 27 -7 4 -9 3 -4 -1z m6 -32
c-1 -5 0 -11 1 -15 4 -13 7 -27 9 -39 0 -5 5 -8 10 -4 5 3 12 1 15 -4 4 -5 2
-12 -4 -16 -5 -3 -8 -19 -5 -35 3 -16 1 -32 -5 -35 -6 -4 -7 1 -3 12 6 15 4
16 -9 5 -26 -21 -56 -23 -54 -4 0 9 -4 17 -11 17 -6 0 -14 3 -18 6 -3 4 2 6
12 6 35 0 41 3 38 21 -1 9 3 27 11 39 9 14 10 24 4 28 -6 4 -8 11 -5 16 7 11
15 12 14 2z"/>
<path d="M877 876 c-4 -10 -3 -15 3 -11 6 3 10 1 10 -4 0 -6 -5 -11 -12 -11
-6 0 -3 -7 8 -15 16 -13 16 -14 2 -9 -11 4 -18 1 -18 -6 0 -6 -4 -8 -10 -5 -6
3 -7 -1 -3 -10 5 -13 7 -14 14 -3 5 7 9 9 9 4 0 -5 7 -3 15 4 8 7 12 16 9 22
-3 5 0 16 8 25 8 11 8 14 1 10 -6 -4 -16 0 -21 9 -8 15 -10 15 -15 0z"/>
<path d="M996 887 c3 -10 9 -15 12 -12 3 3 0 11 -7 18 -10 9 -11 8 -5 -6z"/>
<path d="M995 849 c-10 -15 3 -25 16 -12 7 7 7 13 1 17 -6 3 -14 1 -17 -5z"/>
<path d="M1413 795 c0 -8 4 -12 9 -9 5 3 6 10 3 15 -9 13 -12 11 -12 -6z"/>
<path d="M850 521 c0 -11 39 -41 53 -41 4 0 5 6 1 13 -5 8 -2 7 10 -2 11 -10
14 -17 7 -24 -7 -7 -5 -17 6 -29 16 -18 16 -18 -3 -12 -16 7 -17 5 -7 -7 10
-13 10 -16 -2 -16 -8 0 -11 5 -8 10 4 6 1 7 -7 2 -9 -6 -11 -4 -6 6 4 8 -2 3
-13 -10 -12 -13 -21 -18 -21 -11 0 9 -3 10 -13 2 -11 -9 -13 -5 -13 21 1 27 5
32 26 33 52 2 56 4 37 15 -10 6 -21 8 -24 5 -4 -3 -14 1 -24 10 -11 10 -19 12
-24 5 -4 -8 -12 -8 -25 -1 -13 7 -21 7 -25 0 -4 -6 -10 -8 -15 -5 -5 3 -12 0
-15 -6 -5 -7 -15 -3 -31 12 -13 12 -24 21 -25 18 0 -2 -2 -12 -4 -22 -2 -10 1
-14 7 -11 7 5 8 2 4 -5 -5 -7 -11 -9 -15 -6 -6 6 -7 10 -10 36 0 5 -5 8 -11 4
-6 -4 -5 -15 2 -30 10 -23 30 -28 53 -13 6 4 16 -1 22 -11 9 -14 8 -18 -5 -18
-10 0 -23 5 -31 11 -12 9 -13 8 -8 -6 3 -10 2 -20 -4 -23 -5 -4 -8 -3 -7 2 2
4 0 9 -4 11 -8 2 -8 -5 -1 -25 4 -9 9 -9 20 2 8 8 19 15 26 15 6 0 3 -6 -7
-13 -17 -12 -17 -14 -1 -27 9 -8 24 -15 32 -16 12 -2 11 1 -3 17 -14 15 -14
21 -4 34 7 8 16 13 20 10 4 -3 7 3 6 12 -1 12 7 17 24 18 20 0 25 -5 26 -25 1
-14 3 -29 4 -35 1 -5 2 -13 2 -16 -1 -9 31 -4 53 8 11 6 28 9 37 8 20 -4 43
20 34 34 -4 5 -2 12 4 16 6 4 8 11 5 16 -4 5 -1 9 4 9 6 0 11 -4 11 -9 0 -5 8
-8 18 -6 9 2 19 4 21 4 3 1 -13 14 -35 30 -23 17 -43 26 -49 21 -6 -5 -21 -2
-35 5 -30 17 -40 18 -40 6z m35 -19 c-3 -3 -11 0 -18 7 -9 10 -8 11 6 5 10 -3
15 -9 12 -12z m95 -27 c0 -2 -8 -2 -17 -1 -10 0 -18 -5 -19 -11 -3 -23 -4 -24
-14 -18 -8 5 -8 11 0 20 8 9 8 15 0 20 -6 3 -8 11 -5 16 5 7 55 -16 55 -26z
m-271 11 c9 -11 9 -16 -1 -22 -7 -4 -10 -4 -6 1 4 4 3 14 -3 22 -6 7 -9 13 -6
13 2 0 10 -6 16 -14z m118 -5 c6 6 15 4 24 -7 8 -10 9 -15 2 -11 -6 4 -15 3
-18 -3 -5 -7 -11 -8 -19 -1 -9 8 -31 9 -53 2 -8 -3 -13 0 -13 7 0 4 4 7 9 7 5
0 13 3 16 7 4 4 15 3 25 -2 10 -6 21 -5 27 1z m-96 -98 c13 -16 12 -17 -3 -4
-10 7 -18 15 -18 17 0 8 8 3 21 -13z"/>
<path d="M843 428 c1 -19 15 -19 35 0 8 7 18 10 23 7 5 -4 9 -2 9 3 0 5 -15 8
-34 8 -26 -1 -34 -5 -33 -18z"/>
</g>
</svg>
